<svg id="visual" viewBox="0 0 1920 1080" width="1920" height="1080" xmlns="http://www.w3.org/2000/svg" xmlns:xlink="http://www.w3.org/1999/xlink" version="1.1"><rect x="0" y="0" width="1920" height="1080" fill="#5daeec"></rect><defs><linearGradient id="grad1_0" x1="43.8%" y1="0%" x2="100%" y2="100%"><stop offset="14.444444444444446%" stop-color="#0045b3" stop-opacity="1"></stop><stop offset="85.55555555555554%" stop-color="#0045b3" stop-opacity="1"></stop></linearGradient></defs><defs><linearGradient id="grad1_1" x1="43.8%" y1="0%" x2="100%" y2="100%"><stop offset="14.444444444444446%" stop-color="#0045b3" stop-opacity="1"></stop><stop offset="85.55555555555554%" stop-color="#005bc2" stop-opacity="1"></stop></linearGradient></defs><defs><linearGradient id="grad1_2" x1="43.8%" y1="0%" x2="100%" y2="100%"><stop offset="14.444444444444446%" stop-color="#0770ce" stop-opacity="1"></stop><stop offset="85.55555555555554%" stop-color="#005bc2" stop-opacity="1"></stop></linearGradient></defs><defs><linearGradient id="grad1_3" x1="43.8%" y1="0%" x2="100%" y2="100%"><stop offset="14.444444444444446%" stop-color="#0770ce" stop-opacity="1"></stop><stop offset="85.55555555555554%" stop-color="#2685da" stop-opacity="1"></stop></linearGradient></defs><defs><linearGradient id="grad1_4" x1="43.8%" y1="0%" x2="100%" y2="100%"><stop offset="14.444444444444446%" stop-color="#429ae3" stop-opacity="1"></stop><stop offset="85.55555555555554%" stop-color="#2685da" stop-opacity="1"></stop></linearGradient></defs><defs><linearGradient id="grad1_5" x1="43.8%" y1="0%" x2="100%" y2="100%"><stop offset="14.444444444444446%" stop-color="#429ae3" stop-opacity="1"></stop><stop offset="85.55555555555554%" stop-color="#5daeec" stop-opacity="1"></stop></linearGradient></defs><defs><linearGradient id="grad2_0" x1="0%" y1="0%" x2="56.3%" y2="100%"><stop offset="14.444444444444446%" stop-color="#0045b3" stop-opacity="1"></stop><stop offset="85.55555555555554%" stop-color="#0045b3" stop-opacity="1"></stop></linearGradient></defs><defs><linearGradient id="grad2_1" x1="0%" y1="0%" x2="56.3%" y2="100%"><stop offset="14.444444444444446%" stop-color="#005bc2" stop-opacity="1"></stop><stop offset="85.55555555555554%" stop-color="#0045b3" stop-opacity="1"></stop></linearGradient></defs><defs><linearGradient id="grad2_2" x1="0%" y1="0%" x2="56.3%" y2="100%"><stop offset="14.444444444444446%" stop-color="#005bc2" stop-opacity="1"></stop><stop offset="85.55555555555554%" stop-color="#0770ce" stop-opacity="1"></stop></linearGradient></defs><defs><linearGradient id="grad2_3" x1="0%" y1="0%" x2="56.3%" y2="100%"><stop offset="14.444444444444446%" stop-color="#2685da" stop-opacity="1"></stop><stop offset="85.55555555555554%" stop-color="#0770ce" stop-opacity="1"></stop></linearGradient></defs><defs><linearGradient id="grad2_4" x1="0%" y1="0%" x2="56.3%" y2="100%"><stop offset="14.444444444444446%" stop-color="#2685da" stop-opacity="1"></stop><stop offset="85.55555555555554%" stop-color="#429ae3" stop-opacity="1"></stop></linearGradient></defs><defs><linearGradient id="grad2_5" x1="0%" y1="0%" x2="56.3%" y2="100%"><stop offset="14.444444444444446%" stop-color="#5daeec" stop-opacity="1"></stop><stop offset="85.55555555555554%" stop-color="#429ae3" stop-opacity="1"></stop></linearGradient></defs><g transform="translate(1920, 0)"><path d="M0 1080C-47.5 1052 -95.1 1024 -146 1015.6C-196.9 1007.1 -251.3 1018.3 -291.9 994C-332.5 969.7 -359.4 910 -408.8 895.1C-458.1 880.2 -529.9 910.1 -575.2 895.1C-620.6 880.1 -639.6 820 -681.7 786.7C-723.8 753.4 -789.1 746.8 -816.2 707.2C-843.3 667.7 -832.2 595.1 -845.5 543.3C-858.8 491.6 -896.5 460.8 -919.6 420C-942.8 379.2 -951.4 328.5 -954.7 280.3C-958 232.2 -956 186.6 -976 140.3C-996 94 -1038 47 -1080 0L0 0Z" fill="#4fa4e8"></path><path d="M0 900C-39.6 876.7 -79.2 853.3 -121.7 846.3C-164.1 839.3 -209.4 848.6 -243.2 828.4C-277.1 808.1 -299.5 758.3 -340.6 745.9C-381.8 733.5 -441.6 758.4 -479.4 745.9C-517.2 733.4 -533 683.4 -568.1 655.6C-603.2 627.9 -657.6 622.4 -680.2 589.4C-702.7 556.4 -693.5 495.9 -704.5 452.8C-715.6 409.7 -747.1 384 -766.4 350C-785.7 316 -792.8 273.7 -795.6 233.6C-798.3 193.5 -796.6 155.5 -813.3 116.9C-830 78.4 -865 39.2 -900 0L0 0Z" fill="#348fdf"></path><path d="M0 720C-31.7 701.3 -63.4 682.6 -97.3 677C-131.3 671.4 -167.5 678.9 -194.6 662.7C-221.7 646.5 -239.6 606.7 -272.5 596.7C-305.4 586.8 -353.3 606.8 -383.5 596.7C-413.7 586.7 -426.4 546.7 -454.5 524.5C-482.6 502.3 -526.1 497.9 -544.1 471.5C-562.2 445.1 -554.8 396.7 -563.6 362.2C-572.5 327.7 -597.7 307.2 -613.1 280C-628.5 252.8 -634.3 219 -636.5 186.9C-638.7 154.8 -637.3 124.4 -650.6 93.5C-664 62.7 -692 31.3 -720 0L0 0Z" fill="#187bd4"></path><path d="M0 540C-23.8 526 -47.5 512 -73 507.8C-98.5 503.6 -125.6 509.2 -145.9 497C-166.2 484.9 -179.7 455 -204.4 447.5C-229.1 440.1 -264.9 455.1 -287.6 447.5C-310.3 440 -319.8 410 -340.9 393.4C-361.9 376.7 -394.6 373.4 -408.1 353.6C-421.6 333.8 -416.1 297.5 -422.7 271.7C-429.4 245.8 -448.2 230.4 -459.8 210C-471.4 189.6 -475.7 164.2 -477.3 140.2C-479 116.1 -478 93.3 -488 70.2C-498 47 -519 23.5 -540 0L0 0Z" fill="#0066c8"></path><path d="M0 360C-15.8 350.7 -31.7 341.3 -48.7 338.5C-65.6 335.7 -83.8 339.4 -97.3 331.3C-110.8 323.2 -119.8 303.3 -136.3 298.4C-152.7 293.4 -176.6 303.4 -191.7 298.4C-206.9 293.4 -213.2 273.3 -227.2 262.2C-241.3 251.1 -263 248.9 -272.1 235.7C-281.1 222.6 -277.4 198.4 -281.8 181.1C-286.3 163.9 -298.8 153.6 -306.5 140C-314.3 126.4 -317.1 109.5 -318.2 93.4C-319.3 77.4 -318.7 62.2 -325.3 46.8C-332 31.3 -346 15.7 -360 0L0 0Z" fill="#0050bb"></path><path d="M0 180C-7.9 175.3 -15.8 170.7 -24.3 169.3C-32.8 167.9 -41.9 169.7 -48.6 165.7C-55.4 161.6 -59.9 151.7 -68.1 149.2C-76.4 146.7 -88.3 151.7 -95.9 149.2C-103.4 146.7 -106.6 136.7 -113.6 131.1C-120.6 125.6 -131.5 124.5 -136 117.9C-140.5 111.3 -138.7 99.2 -140.9 90.6C-143.1 81.9 -149.4 76.8 -153.3 70C-157.1 63.2 -158.6 54.7 -159.1 46.7C-159.7 38.7 -159.3 31.1 -162.7 23.4C-166 15.7 -173 7.8 -180 0L0 0Z" fill="#0045b3"></path></g><g transform="translate(0, 1080)"><path d="M0 -1080C55.1 -1090.3 110.2 -1100.6 153.7 -1069C197.2 -1037.4 229 -963.9 277.5 -945.1C326 -926.3 391.1 -962.2 430.4 -942.4C469.7 -922.6 483.2 -847 527.1 -820.2C571 -793.4 645.3 -815.4 691.5 -798.1C737.8 -780.7 755.9 -724.1 785.2 -680.4C814.5 -636.7 855 -606 880.8 -566.1C906.6 -526.1 917.8 -476.8 948.7 -433.3C979.7 -389.8 1030.3 -352.1 1033.4 -303.4C1036.4 -254.7 992 -195 991.8 -142.6C991.6 -90.2 1035.8 -45.1 1080 0L0 0Z" fill="#4fa4e8"></path><path d="M0 -900C45.9 -908.6 91.8 -917.2 128.1 -890.8C164.3 -864.5 190.9 -803.3 231.3 -787.6C271.6 -771.9 325.9 -801.8 358.6 -785.3C391.4 -768.8 402.7 -705.8 439.3 -683.5C475.9 -661.2 537.8 -679.5 576.3 -665.1C614.8 -650.6 629.9 -603.4 654.4 -567C678.8 -530.6 712.5 -505 734 -471.7C755.5 -438.4 764.9 -397.3 790.6 -361.1C816.4 -324.8 858.6 -293.4 861.1 -252.9C863.7 -212.3 826.6 -162.5 826.5 -118.8C826.4 -75.2 863.2 -37.6 900 0L0 0Z" fill="#348fdf"></path><path d="M0 -720C36.7 -726.9 73.5 -733.7 102.5 -712.7C131.5 -691.6 152.7 -642.6 185 -630.1C217.3 -617.5 260.7 -641.5 286.9 -628.3C313.1 -615 322.1 -564.7 351.4 -546.8C380.7 -529 430.2 -543.6 461 -532C491.8 -520.5 503.9 -482.7 523.5 -453.6C543 -424.5 570 -404 587.2 -377.4C604.4 -350.7 611.9 -317.8 632.5 -288.9C653.1 -259.9 686.9 -234.7 688.9 -202.3C691 -169.8 661.3 -130 661.2 -95.1C661.1 -60.1 690.5 -30.1 720 0L0 0Z" fill="#187bd4"></path><path d="M0 -540C27.6 -545.2 55.1 -550.3 76.9 -534.5C98.6 -518.7 114.5 -482 138.8 -472.6C163 -463.1 195.5 -481.1 215.2 -471.2C234.8 -461.3 241.6 -423.5 263.6 -410.1C285.5 -396.7 322.7 -407.7 345.8 -399C368.9 -390.4 378 -362 392.6 -340.2C407.3 -318.4 427.5 -303 440.4 -283C453.3 -263 458.9 -238.4 474.4 -216.6C489.8 -194.9 515.2 -176.1 516.7 -151.7C518.2 -127.4 496 -97.5 495.9 -71.3C495.8 -45.1 517.9 -22.5 540 0L0 0Z" fill="#0066c8"></path><path d="M0 -360C18.4 -363.4 36.7 -366.9 51.2 -356.3C65.7 -345.8 76.3 -321.3 92.5 -315C108.7 -308.8 130.4 -320.7 143.5 -314.1C156.6 -307.5 161.1 -282.3 175.7 -273.4C190.3 -264.5 215.1 -271.8 230.5 -266C245.9 -260.2 252 -241.4 261.7 -226.8C271.5 -212.2 285 -202 293.6 -188.7C302.2 -175.4 305.9 -158.9 316.2 -144.4C326.6 -129.9 343.4 -117.4 344.5 -101.1C345.5 -84.9 330.7 -65 330.6 -47.5C330.5 -30.1 345.3 -15 360 0L0 0Z" fill="#0050bb"></path><path d="M0 -180C9.2 -181.7 18.4 -183.4 25.6 -178.2C32.9 -172.9 38.2 -160.7 46.3 -157.5C54.3 -154.4 65.2 -160.4 71.7 -157.1C78.3 -153.8 80.5 -141.2 87.9 -136.7C95.2 -132.2 107.6 -135.9 115.3 -133C123 -130.1 126 -120.7 130.9 -113.4C135.8 -106.1 142.5 -101 146.8 -94.3C151.1 -87.7 153 -79.5 158.1 -72.2C163.3 -65 171.7 -58.7 172.2 -50.6C172.7 -42.5 165.3 -32.5 165.3 -23.8C165.3 -15 172.6 -7.5 180 0L0 0Z" fill="#0045b3"></path></g></svg>